<svg xmlns="http://www.w3.org/2000/svg" width="24" height="23" viewBox="0 0 16.933 16.933" id="shopping-bag"><path d="M8.474 0C6.95 0 5.699 1.166 5.579 2.646h-.922c-.839 0-1.454.65-1.582 1.533L1.464 15.324c-.127.877.69 1.61 1.584 1.61h10.84c.9 0 1.708-.734 1.582-1.61L13.86 4.179c-.123-.851-.719-1.533-1.582-1.533h-.91A2.896 2.896 0 0 0 8.473 0Zm0 .529c1.238 0 2.25.927 2.366 2.117H6.108A2.36 2.36 0 0 1 8.474.53zM4.657 3.176h7.621c.633 0 .982.542 1.059 1.078l1.61 11.146c.08.554-.493 1.004-1.06 1.004H3.047c-.565 0-1.138-.447-1.058-1.004L3.6 4.254c.084-.588.46-1.078 1.058-1.078Zm6.195 2.115c0 1.299-1.06 2.35-2.378 2.35S6.096 6.59 6.096 5.29c0-.352-.529-.354-.529 0 0 1.588 1.306 2.879 2.907 2.879 1.6 0 2.906-1.291 2.906-2.88 0-.351-.528-.351-.528 0z" color="#000" font-family="sans-serif" font-weight="600" overflow="visible" style="line-height:normal;font-variant-ligatures:normal;font-variant-position:normal;font-variant-caps:normal;font-variant-numeric:normal;font-variant-alternates:normal;font-feature-settings:normal;text-indent:0;text-align:start;text-decoration-line:none;text-decoration-style:solid;text-decoration-color:#000;text-transform:none;text-orientation:mixed;shape-padding:0;isolation:auto;mix-blend-mode:normal"></path></svg>